<mxfile host="app.diagrams.net" modified="2023-12-07T01:32:16.983Z" agent="Mozilla/5.0 (Windows NT 10.0; Win64; x64) AppleWebKit/537.36 (KHTML, like Gecko) Chrome/119.0.0.0 Safari/537.36" version="22.1.7" etag="T8xzYCAaWLTJxuUktGoH" type="github">
  <diagram name="Page-1" id="3rPpJFASS-GYXx7CbHmq">
    <mxGraphModel>
      <root>
        <mxCell id="0" />
        <mxCell id="1" parent="0" />
      </root>
    </mxGraphModel>
  </diagram>
</mxfile>
